<svg width="5188" height="764" viewBox="0 0 5188 764" fill="none" xmlns="http://www.w3.org/2000/svg">
<g filter="url(#filter0_d_3_8)">
<g clip-path="url(#clip0_3_8)">
<rect x="4" width="5180" height="756" fill="white"/>
<path d="M572.005 50.1074C588.118 52.0605 602.767 53.5254 615.95 54.502C628.646 55.4785 639.632 56.4551 648.909 57.4316C659.651 58.4082 669.173 59.1406 677.474 59.6289C686.263 59.6289 697.493 59.3848 711.165 58.8965C722.884 58.4082 737.776 57.6758 755.843 56.6992C773.909 55.7227 796.126 54.0137 822.493 51.5723C809.798 58.8965 799.3 66.2207 790.999 73.5449C783.187 80.8691 777.083 87.4609 772.688 93.3203C767.317 100.156 763.411 106.992 760.97 113.828C759.505 123.105 759.993 141.172 762.435 168.027C763.411 179.258 764.876 193.174 766.829 209.775C769.271 225.889 772.2 245.176 775.618 267.637C779.524 289.609 784.163 315 789.534 343.809C795.394 372.617 801.985 405.332 809.31 441.953C819.075 414.121 827.132 389.463 833.479 367.979C839.827 346.006 845.198 327.207 849.593 311.582C854.476 294.004 858.626 278.379 862.044 264.707C865.462 250.547 869.612 232.236 874.495 209.775C878.401 190.732 883.528 166.074 889.876 135.801C896.224 105.527 904.036 68.1738 913.313 23.7402L939.681 27.4023C942.122 62.0703 944.563 92.5879 947.005 118.955C949.935 145.322 952.376 167.783 954.329 186.338C956.282 207.822 958.235 226.377 960.188 242.002C962.142 256.162 965.071 272.52 968.978 291.074C972.396 306.699 976.79 325.986 982.161 348.936C987.532 371.396 994.612 396.787 1003.4 425.107C1012.19 390.439 1020 359.434 1026.84 332.09C1034.16 304.746 1040.27 280.576 1045.15 259.58C1050.52 238.584 1054.92 220.518 1058.33 205.381C1062.24 190.244 1065.41 177.549 1067.85 167.295C1073.23 142.881 1076.4 126.523 1077.38 118.223C1076.89 108.945 1074.69 99.9121 1070.78 91.123C1067.37 83.3105 1062 74.7656 1054.67 65.4883C1047.35 56.2109 1036.6 47.1777 1022.44 38.3887C1052.23 39.3652 1076.4 40.0977 1094.95 40.5859C1114 40.5859 1129.13 40.5859 1140.36 40.5859H1169.66H1196.03C1205.79 40.5859 1218.49 40.5859 1234.11 40.5859C1250.23 40.0977 1270.74 39.3652 1295.64 38.3887C1274.15 49.6191 1256.82 59.873 1243.64 69.1504C1230.45 78.4277 1220.2 86.2402 1212.87 92.5879C1204.08 100.4 1197.74 106.992 1193.83 112.363C1189.92 122.129 1183.58 144.102 1174.79 178.281C1170.88 192.93 1166.49 211.24 1161.6 233.213C1156.72 254.697 1150.86 280.576 1144.03 310.85C1137.68 341.123 1130.35 376.523 1122.05 417.051C1113.75 457.09 1104.48 502.988 1094.22 554.746L967.513 541.562L913.313 313.779C905.013 355.283 898.421 388.975 893.538 414.854C888.655 440.244 884.993 460.02 882.552 474.18C879.622 491.27 877.913 503.721 877.425 511.533C876.937 518.369 876.448 524.961 875.96 531.309C875.472 536.68 874.739 542.539 873.763 548.887C873.274 555.234 872.542 561.094 871.565 566.465H741.927C729.231 510.801 717.757 461.729 707.503 419.248C697.737 376.279 688.948 338.682 681.136 306.455C673.323 274.229 666.487 246.885 660.628 224.424C655.257 201.963 650.374 183.164 645.979 168.027C636.214 132.871 629.134 111.143 624.739 102.842C621.321 98.9355 616.927 94.2969 611.556 88.9258C607.161 84.5312 601.79 79.1602 595.442 72.8125C588.606 65.9766 580.794 58.4082 572.005 50.1074ZM1480.21 12.7539C1506.58 13.7305 1533.19 18.6133 1560.04 27.4023C1587.39 35.7031 1612.53 49.375 1635.48 68.418C1658.43 86.9727 1677.96 111.143 1694.08 140.928C1710.19 170.225 1720.2 206.113 1724.1 248.594C1727.52 283.262 1723.13 317.686 1710.92 351.865C1699.2 385.557 1682.84 416.562 1661.85 444.883C1640.85 473.203 1616.68 497.373 1589.34 517.393C1562 536.924 1534.65 549.863 1507.31 556.211C1490.71 560.117 1472.4 560.605 1452.38 557.676C1432.84 554.258 1412.83 548.154 1392.32 539.365C1372.3 530.088 1352.52 518.369 1332.99 504.209C1313.95 490.049 1296.61 473.936 1280.99 455.869C1265.36 437.314 1252.18 417.295 1241.44 395.811C1231.18 374.326 1224.84 351.865 1222.4 328.428C1219.95 308.896 1219.71 287.412 1221.66 263.975C1224.1 240.049 1228.74 216.367 1235.58 192.93C1242.9 169.004 1252.91 146.055 1265.61 124.082C1278.79 101.621 1295.39 82.0898 1315.41 65.4883C1335.43 48.3984 1358.87 35.2148 1385.73 25.9375C1413.07 16.1719 1444.56 11.7773 1480.21 12.7539ZM1349.1 309.385C1342.27 361.631 1347.15 403.623 1363.75 435.361C1380.84 467.1 1406.48 486.387 1440.66 493.223C1457.26 496.641 1473.13 493.223 1488.26 482.969C1503.89 472.227 1518.05 456.846 1530.75 436.826C1543.44 416.807 1554.43 393.369 1563.7 366.514C1572.98 339.658 1579.82 311.582 1584.21 282.285C1588.61 252.988 1588.85 226.621 1584.94 203.184C1581.53 179.258 1575.42 158.994 1566.63 142.393C1557.84 125.303 1547.1 112.119 1534.41 102.842C1522.2 93.5645 1509.5 88.4375 1496.32 87.4609C1473.37 85.9961 1453.35 92.0996 1436.26 105.771C1419.17 118.955 1404.77 136.289 1393.05 157.773C1381.33 179.258 1371.81 203.428 1364.49 230.283C1357.65 257.139 1352.52 283.506 1349.1 309.385ZM1713.85 30.332C1729.48 32.7734 1743.64 34.9707 1756.33 36.9238C1769.03 38.3887 1780.01 39.6094 1789.29 40.5859C1800.03 42.0508 1809.55 43.2715 1817.85 44.248C1828.11 45.7129 1843.49 44.0039 1864 39.1211C1884.5 33.75 1906.97 28.8672 1931.38 24.4727C1956.28 19.5898 1981.67 16.9043 2007.55 16.416C2033.43 15.4395 2057.11 20.0781 2078.6 30.332C2100.08 40.5859 2117.66 50.8398 2131.33 61.0938C2145 71.3477 2155.75 82.334 2163.56 94.0527C2171.86 105.283 2177.72 117.246 2181.14 129.941C2184.55 142.637 2186.51 156.553 2187 171.689C2186.51 194.15 2181.14 215.879 2170.88 236.875C2166.49 245.664 2160.63 254.941 2153.3 264.707C2146.47 273.984 2137.92 283.018 2127.67 291.807C2117.42 300.596 2105.21 308.896 2091.05 316.709C2077.38 324.521 2061.26 331.357 2042.71 337.217C2060.77 342.588 2075.67 348.936 2087.39 356.26C2099.59 363.584 2109.36 370.42 2116.68 376.768C2125.47 384.58 2132.06 392.148 2136.46 399.473C2141.83 409.727 2145.49 418.516 2147.44 425.84C2149.4 433.164 2150.62 440.244 2151.11 447.08C2152.08 453.428 2153.3 460.02 2154.77 466.855C2156.23 473.691 2159.41 481.504 2164.29 490.293C2168.2 497.129 2172.83 504.209 2178.21 511.533C2183.09 517.881 2188.7 524.717 2195.05 532.041C2201.89 539.365 2210.19 546.445 2219.95 553.281C2206.28 553.77 2193.59 554.014 2181.87 554.014C2170.64 554.014 2160.87 554.014 2152.57 554.014C2142.81 554.014 2133.53 553.77 2124.74 553.281C2115.95 552.793 2104.96 552.549 2091.78 552.549C2080.55 552.549 2066.15 552.549 2048.57 552.549C2031.48 552.549 2010.73 552.793 1986.31 553.281C1997.05 544.98 2005.84 536.68 2012.68 528.379C2019.51 520.078 2024.89 512.51 2028.79 505.674C2033.19 497.861 2036.36 490.293 2038.31 482.969C2040.75 469.785 2041 456.113 2039.05 441.953C2037.58 429.746 2033.67 416.318 2027.33 401.67C2020.98 386.533 2010.73 371.396 1996.57 356.26C1982.41 358.701 1970.44 360.654 1960.68 362.119C1951.4 363.096 1943.34 364.072 1936.51 365.049C1928.69 366.025 1922.35 366.758 1917.46 367.246C1913.07 367.734 1908.19 368.223 1902.82 368.711C1898.42 369.199 1893.54 369.932 1888.17 370.908C1883.28 371.396 1878.65 372.129 1874.25 373.105C1873.27 394.102 1873.27 412.412 1874.25 428.037C1875.23 443.174 1876.45 455.869 1877.91 466.123C1879.87 478.33 1882.06 488.828 1884.5 497.617C1886.95 506.406 1890.36 514.951 1894.76 523.252C1898.18 530.088 1902.57 537.412 1907.94 545.225C1913.31 552.549 1919.42 558.652 1926.25 563.535C1913.56 563.535 1901.35 563.535 1889.63 563.535C1878.4 563.535 1868.15 563.291 1858.87 562.803C1848.13 562.803 1837.87 562.559 1828.11 562.07C1818.34 561.582 1807.36 561.338 1795.15 561.338C1784.9 561.338 1772.69 561.338 1758.53 561.338C1744.86 561.338 1729.96 561.582 1713.85 562.07C1726.55 548.887 1736.56 537.656 1743.88 528.379C1751.2 519.102 1756.82 511.289 1760.73 504.941C1765.12 498.105 1767.81 492.246 1768.78 487.363C1769.76 479.551 1770.49 465.635 1770.98 445.615C1771.96 425.107 1772.69 401.67 1773.18 375.303C1773.67 348.936 1773.91 321.348 1773.91 292.539C1773.91 263.73 1773.67 236.875 1773.18 211.973C1772.69 186.582 1772.2 164.854 1771.71 146.787C1771.22 128.721 1770.74 117.246 1770.25 112.363C1768.78 103.574 1765.61 94.7852 1760.73 85.9961C1756.82 78.1836 1751.2 69.3945 1743.88 59.6289C1736.56 49.8633 1726.55 40.0977 1713.85 30.332ZM1990.71 288.145C1995.59 285.215 1999.74 282.285 2003.16 279.355C2006.58 276.426 2009.5 271.787 2011.95 265.439C2014.39 258.604 2016.34 249.082 2017.81 236.875C2019.76 224.668 2021.96 208.066 2024.4 187.07C2026.35 166.074 2024.89 148.74 2020 135.068C2015.61 121.396 2009.5 110.654 2001.69 102.842C1994.37 94.541 1986.07 88.9258 1976.79 85.9961C1968 82.5781 1960.19 80.8691 1953.35 80.8691C1939.68 80.8691 1926.25 85.0195 1913.07 93.3203C1899.89 101.621 1889.88 112.852 1883.04 127.012C1880.6 133.359 1878.4 143.857 1876.45 158.506C1874.98 171.201 1874.01 188.779 1873.52 211.24C1873.03 233.701 1873.76 263.242 1875.72 299.863C1894.27 302.793 1910.63 304.014 1924.79 303.525C1938.95 302.549 1950.91 300.84 1960.68 298.398C1972.4 295.957 1982.41 292.539 1990.71 288.145ZM2222.15 42.0508C2238.75 44.4922 2253.4 46.2012 2266.1 47.1777C2279.28 48.1543 2290.27 49.1309 2299.06 50.1074C2309.31 51.084 2318.1 51.5723 2325.42 51.5723H2353.99C2373.03 51.5723 2404.52 50.8398 2448.47 49.375C2437.73 52.793 2428.69 57.6758 2421.37 64.0234C2414.53 70.3711 2408.92 76.9629 2404.52 83.7988C2399.15 91.6113 2395.25 99.668 2392.81 107.969C2389.88 118.223 2387.19 131.895 2384.75 148.984C2382.31 164.121 2379.87 183.896 2377.42 208.311C2375.47 232.725 2373.52 263.242 2371.57 299.863C2392.56 275.938 2410.87 254.697 2426.5 236.143C2442.61 217.588 2456.53 201.23 2468.25 187.07C2479.96 172.91 2489.73 160.703 2497.54 150.449C2505.84 140.195 2512.68 131.406 2518.05 124.082C2530.75 107.48 2538.07 96.25 2540.02 90.3906C2540.51 86.9727 2540.27 82.8223 2539.29 77.9395C2538.31 74.0332 2536.85 69.3945 2534.9 64.0234C2532.94 58.1641 2530.01 51.8164 2526.11 44.9805C2545.64 45.957 2562.24 46.6895 2575.91 47.1777C2590.07 47.666 2601.79 48.1543 2611.07 48.6426C2621.81 49.1309 2630.6 49.375 2637.43 49.375H2668.2C2679.43 49.375 2694.08 49.375 2712.14 49.375C2730.21 48.8867 2752.91 48.3984 2780.26 47.9102C2762.19 52.3047 2745.1 58.1641 2728.99 65.4883C2712.87 72.8125 2698.47 79.8926 2685.77 86.7285C2671.13 95.0293 2657.45 103.574 2644.76 112.363C2632.06 122.129 2617.9 133.604 2602.28 146.787C2589.09 158.018 2573.71 171.934 2556.14 188.535C2538.56 204.648 2519.51 223.447 2499.01 244.932C2520.98 287.9 2540.02 323.301 2556.14 351.133C2572.74 378.477 2586.65 400.449 2597.88 417.051C2610.58 436.582 2621.32 451.475 2630.11 461.729C2638.9 471.006 2649.15 480.527 2660.87 490.293C2670.64 498.594 2682.84 507.871 2697.49 518.125C2712.14 527.891 2728.99 537.412 2748.03 546.689L2539.29 556.943C2542.22 553.037 2543.93 548.398 2544.42 543.027C2545.39 537.168 2545.88 531.797 2545.88 526.914C2545.88 521.543 2545.39 515.684 2544.42 509.336C2542.46 501.523 2537.34 488.828 2529.04 471.25C2522.2 456.113 2511.7 434.873 2497.54 407.529C2483.38 379.697 2463.85 343.076 2438.95 297.666L2376.69 362.852C2374.25 378.477 2373.03 392.637 2373.03 405.332C2373.03 418.027 2373.52 428.525 2374.5 436.826C2375.96 447.08 2377.91 455.869 2380.35 463.193C2383.28 470.518 2387.43 478.818 2392.81 488.096C2397.2 496.396 2403.06 506.162 2410.38 517.393C2417.71 528.623 2426.99 541.074 2438.22 554.746C2426.99 551.816 2415.75 549.863 2404.52 548.887C2393.29 547.422 2383.04 546.445 2373.76 545.957C2363.02 545.469 2352.77 545.713 2343 546.689C2332.75 547.666 2320.78 549.131 2307.11 551.084C2295.39 553.037 2280.99 555.479 2263.9 558.408C2246.81 561.338 2227.28 565 2205.31 569.395C2216.05 563.047 2224.59 556.211 2230.94 548.887C2237.29 541.562 2242.42 534.482 2246.32 527.646C2250.72 519.834 2253.65 512.266 2255.11 504.941C2256.09 498.594 2256.82 484.922 2257.31 463.926C2258.28 442.93 2258.77 418.516 2258.77 390.684C2259.26 362.363 2259.26 332.578 2258.77 301.328C2258.28 270.078 2257.8 240.781 2257.31 213.438C2256.82 186.094 2256.09 162.9 2255.11 143.857C2254.62 124.326 2254.13 112.363 2253.65 107.969C2252.18 101.133 2250.23 93.8086 2247.79 85.9961C2245.34 79.1602 2241.93 72.0801 2237.53 64.7559C2233.63 56.9434 2228.5 49.375 2222.15 42.0508ZM2701.16 59.6289C2730.45 62.0703 2756.09 63.5352 2778.06 64.0234C2800.52 64.5117 2819.56 64.7559 2835.19 64.7559C2853.25 64.7559 2868.88 64.2676 2882.06 63.291C2895.74 61.8262 2913.56 59.873 2935.53 57.4316C2954.08 54.9902 2978.01 51.8164 3007.31 47.9102C3036.6 43.5156 3072.25 37.9004 3114.24 31.0645C3108.87 39.3652 3104.23 48.1543 3100.33 57.4316C3096.91 66.2207 3093.98 74.2773 3091.54 81.6016C3089.09 90.3906 3086.9 98.9355 3084.94 107.236C3083.48 116.514 3081.77 127.988 3079.82 141.66C3077.86 153.379 3075.42 168.271 3072.49 186.338C3070.05 203.916 3066.88 224.912 3062.97 249.326C3048.32 211.24 3033.43 181.943 3018.29 161.436C3003.65 140.928 2989.97 125.791 2977.28 116.025C2962.63 104.795 2948.71 98.4473 2935.53 96.9824C2916.49 96.9824 2900.86 100.645 2888.66 107.969C2876.45 115.293 2866.44 124.814 2858.63 136.533C2851.3 147.764 2845.69 160.215 2841.78 173.887C2837.87 187.07 2835.19 200.01 2833.72 212.705C2832.26 224.912 2831.28 235.898 2830.79 245.664C2830.31 254.941 2829.82 261.289 2829.33 264.707C2846.42 263.73 2860.82 262.51 2872.54 261.045C2884.26 259.58 2893.54 258.115 2900.37 256.65C2908.67 254.697 2915.27 252.744 2920.15 250.791C2927.47 246.885 2934.8 242.246 2942.12 236.875C2948.47 231.992 2955.06 226.133 2961.9 219.297C2969.22 212.461 2975.57 204.16 2980.94 194.395C2978.01 211.973 2975.33 226.621 2972.88 238.34C2970.93 250.059 2969.22 259.336 2967.76 266.172C2965.8 274.473 2964.58 280.82 2964.09 285.215C2963.12 289.609 2961.9 295.713 2960.43 303.525C2958.97 310.361 2957.26 319.15 2955.31 329.893C2953.35 340.635 2951.16 354.062 2948.71 370.176C2942.85 359.922 2936.75 351.621 2930.4 345.273C2924.06 338.438 2918.2 333.066 2912.83 329.16C2906.48 324.766 2900.37 321.348 2894.51 318.906C2888.17 316.953 2881.33 315 2874.01 313.047C2867.66 311.582 2860.09 310.117 2851.3 308.652C2843 306.699 2833.97 304.99 2824.2 303.525C2825.18 329.893 2826.64 352.598 2828.6 371.641C2830.55 390.195 2832.26 405.82 2833.72 418.516C2835.68 433.164 2837.63 445.371 2839.58 455.137C2842.02 464.902 2845.93 475.4 2851.3 486.631C2855.7 496.396 2861.8 507.627 2869.61 520.322C2877.91 532.529 2888.41 545.713 2901.11 559.873C2891.34 557.432 2881.09 555.723 2870.34 554.746C2859.6 553.77 2850.08 553.037 2841.78 552.549C2831.53 552.061 2821.76 552.061 2812.48 552.549C2802.72 553.037 2791.98 554.014 2780.26 555.479C2770.49 556.455 2759.26 557.92 2746.57 559.873C2733.87 561.826 2720.44 564.023 2706.28 566.465C2714.58 558.164 2721.42 549.863 2726.79 541.562C2732.16 533.262 2736.07 525.938 2738.51 519.59C2741.44 512.266 2743.39 505.186 2744.37 498.35C2744.86 492.49 2745.1 479.795 2745.1 460.264C2745.1 440.244 2744.86 417.051 2744.37 390.684C2743.88 363.828 2743.15 335.508 2742.17 305.723C2741.19 275.938 2740.22 248.105 2739.24 222.227C2738.26 195.859 2737.04 173.398 2735.58 154.844C2734.6 136.289 2733.38 125.059 2731.92 121.152C2729.96 116.27 2727.77 110.654 2725.33 104.307C2721.42 94.0527 2713.36 79.1602 2701.16 59.6289ZM3147.2 69.1504C3171.61 70.6152 3192.12 71.8359 3208.72 72.8125C3225.81 73.3008 3239.97 73.7891 3251.2 74.2773C3263.9 74.7656 3274.64 74.7656 3283.43 74.2773C3292.22 73.7891 3304.18 72.5684 3319.32 70.6152C3332.01 69.1504 3348.86 66.9531 3369.86 64.0234C3391.34 60.6055 3417.95 56.2109 3449.69 50.8398C3438.46 62.0703 3429.67 72.3242 3423.32 81.6016C3417.46 90.3906 3412.83 97.959 3409.41 104.307C3405.5 112.119 3402.82 118.711 3401.35 124.082C3400.37 128.965 3401.35 141.172 3404.28 160.703C3407.21 180.234 3411.36 203.428 3416.73 230.283C3422.1 256.65 3427.96 284.971 3434.31 315.244C3440.66 345.029 3447 373.105 3453.35 399.473C3459.7 425.352 3465.32 447.568 3470.2 466.123C3475.57 484.189 3479.48 494.932 3481.92 498.35C3489.24 508.604 3493.88 515.439 3495.83 518.857C3497.79 521.787 3501.2 524.473 3506.09 526.914C3508.04 527.891 3511.21 529.355 3515.61 531.309C3519.51 533.262 3524.64 535.703 3530.99 538.633C3537.83 541.562 3546.37 544.98 3556.62 548.887C3537.58 549.863 3521.22 550.596 3507.55 551.084C3493.88 551.084 3482.65 551.328 3473.86 551.816C3463.61 552.305 3454.82 552.793 3447.49 553.281C3440.17 553.281 3431.38 553.77 3421.13 554.746C3412.34 555.723 3400.86 556.699 3386.7 557.676C3373.03 558.652 3356.92 559.629 3338.36 560.605C3348.13 553.77 3355.94 547.666 3361.8 542.295C3368.15 536.436 3373.03 531.553 3376.45 527.646C3380.35 522.764 3383.04 518.369 3384.5 514.463C3385.48 510.068 3386.21 503.477 3386.7 494.688C3387.19 486.875 3387.19 476.621 3386.7 463.926C3386.21 450.742 3384.99 433.652 3383.04 412.656L3190.41 432.432C3185.53 440.732 3181.87 448.057 3179.43 454.404C3176.99 460.264 3175.28 465.391 3174.3 469.785C3172.83 475.156 3172.35 479.551 3172.83 482.969C3173.81 486.875 3175.52 491.514 3177.96 496.885C3180.4 501.768 3183.82 507.627 3188.22 514.463C3193.1 520.811 3200.18 528.379 3209.46 537.168C3197.25 536.68 3184.8 536.436 3172.1 536.436C3159.41 536.436 3147.69 536.68 3136.95 537.168C3124.25 537.656 3111.8 538.145 3099.59 538.633C3087.39 539.121 3073.47 539.854 3057.84 540.83C3044.66 541.807 3029.28 543.027 3011.7 544.492C2993.64 545.469 2974.35 546.934 2953.84 548.887C2966.54 543.027 2977.28 537.168 2986.07 531.309C2994.86 524.961 3002.18 519.102 3008.04 513.73C3014.88 507.871 3020.74 502.256 3025.62 496.885C3029.04 492.002 3035.87 480.771 3046.13 463.193C3056.38 445.127 3067.85 423.887 3080.55 399.473C3093.73 375.059 3107.41 348.936 3121.57 321.104C3136.21 293.271 3149.4 267.148 3161.12 242.734C3172.83 217.832 3182.36 196.348 3189.68 178.281C3197 160.215 3200.67 148.496 3200.67 143.125C3199.69 136.777 3197.25 129.697 3193.34 121.885C3189.92 115.049 3184.55 107.236 3177.23 98.4473C3170.39 89.6582 3160.38 79.8926 3147.2 69.1504ZM3374.25 358.457C3371.32 341.367 3368.64 326.719 3366.19 314.512C3363.75 301.816 3361.8 291.318 3360.33 283.018C3358.38 273.252 3356.92 264.707 3355.94 257.383C3354.48 250.547 3352.77 241.758 3350.81 231.016C3348.86 221.738 3346.42 210.264 3343.49 196.592C3341.05 182.432 3337.87 165.586 3333.97 146.055C3306.14 201.719 3284.41 244.932 3268.78 275.693C3253.65 305.967 3242.66 328.184 3235.82 342.344C3227.52 358.945 3222.88 368.711 3221.91 371.641L3374.25 358.457ZM3993.15 28.8672C3986.31 44.4922 3980.21 58.1641 3974.84 69.8828C3969.47 81.6016 3964.83 91.6113 3960.92 99.9121C3956.53 109.189 3952.86 117.49 3949.93 124.814C3947.49 130.186 3944.32 137.51 3940.41 146.787C3936.51 155.088 3931.62 166.074 3925.76 179.746C3920.39 192.93 3913.31 210.02 3904.52 231.016C3900.13 212.949 3894.76 197.08 3888.41 183.408C3882.06 169.736 3875.23 157.773 3867.9 147.52C3860.58 137.266 3852.77 128.965 3844.47 122.617C3836.65 115.781 3828.84 110.166 3821.03 105.771C3802.96 96.0059 3783.92 90.6348 3763.9 89.6582C3737.53 91.123 3716.78 95.5176 3701.64 102.842C3687 109.678 3676.25 117.734 3669.42 127.012C3662.58 135.801 3658.92 145.078 3658.43 154.844C3657.94 164.121 3659.16 171.934 3662.09 178.281C3664.53 184.141 3673.08 190.977 3687.73 198.789C3702.86 206.602 3720.93 215.635 3741.93 225.889C3763.41 235.654 3786.36 246.885 3810.77 259.58C3835.19 271.787 3857.65 285.459 3878.16 300.596C3899.15 315.244 3916.73 331.357 3930.89 348.936C3945.54 366.025 3953.6 384.336 3955.06 403.867C3956.53 428.77 3956.28 451.23 3954.33 471.25C3952.38 491.27 3945.54 508.359 3933.82 522.52C3922.1 536.68 3903.79 547.91 3878.89 556.211C3854.48 564.512 3820.54 569.639 3777.08 571.592C3732.16 573.545 3695.3 571.104 3666.49 564.268C3637.68 557.432 3614.24 548.154 3596.17 536.436C3578.6 524.717 3565.41 511.777 3556.62 497.617C3548.32 483.457 3542.22 470.029 3538.31 457.334C3534.41 444.15 3531.72 432.92 3530.26 423.643C3528.79 413.877 3526.35 408.018 3522.93 406.064C3519.03 403.623 3515.12 401.426 3511.21 399.473C3507.8 397.52 3504.13 395.811 3500.23 394.346C3496.32 392.393 3492.42 390.684 3488.51 389.219L3701.64 354.795C3689.44 364.561 3679.92 373.594 3673.08 381.895C3666.73 390.195 3661.85 397.52 3658.43 403.867C3654.52 411.191 3651.84 418.027 3650.37 424.375C3649.4 431.211 3651.59 439.756 3656.97 450.01C3662.34 460.264 3669.66 470.273 3678.94 480.039C3688.7 489.316 3699.93 497.129 3712.63 503.477C3725.33 509.824 3738.51 512.51 3752.18 511.533C3769.27 510.068 3783.19 505.918 3793.93 499.082C3804.67 491.758 3812.73 482.725 3818.1 471.982C3823.96 461.24 3827.38 449.521 3828.35 436.826C3829.33 424.131 3828.11 411.68 3824.69 399.473C3821.76 386.777 3816.88 375.059 3810.04 364.316C3803.21 353.086 3795.15 343.809 3785.87 336.484C3777.57 330.625 3764.63 325.01 3747.05 319.639C3729.96 314.268 3710.68 308.408 3689.19 302.061C3668.2 295.713 3646.47 288.389 3624.01 280.088C3602.03 271.787 3582.01 261.533 3563.95 249.326C3546.37 237.119 3532.21 222.715 3521.47 206.113C3511.21 189.512 3507.31 169.492 3509.75 146.055C3511.7 126.035 3518.05 109.434 3528.79 96.25C3540.02 82.5781 3553.94 71.8359 3570.54 64.0234C3587.63 55.7227 3606.43 49.6191 3626.94 45.7129C3647.93 41.8066 3669.17 39.6094 3690.66 39.1211C3712.63 38.1445 3734.11 38.3887 3755.11 39.8535C3776.59 41.3184 3795.88 43.0273 3812.97 44.9805C3830.06 46.9336 3844.47 48.8867 3856.18 50.8398C3868.39 52.3047 3875.96 53.2813 3878.89 53.7695C3891.58 54.7461 3904.28 54.502 3916.98 53.0371C3928.21 52.0605 3940.41 49.8633 3953.6 46.4453C3967.27 42.5391 3980.45 36.6797 3993.15 28.8672ZM3974.84 30.332C4007.55 34.2383 4035.87 37.168 4059.8 39.1211C4083.72 40.5859 4103.5 41.8066 4119.12 42.7832C4137.19 43.7598 4152.33 44.0039 4164.53 43.5156C4177.23 43.0273 4194.56 41.8066 4216.54 39.8535C4235.09 38.3887 4259.5 36.4355 4289.78 33.9941C4320.05 31.0645 4357.89 27.1582 4403.3 22.2754C4403.79 33.5059 4404.04 44.4922 4404.04 55.2344C4404.52 65.4883 4405.01 74.5215 4405.5 82.334C4405.99 91.6113 4406.23 100.156 4406.23 107.969C4406.23 116.27 4405.75 126.768 4404.77 139.463C4403.79 150.205 4402.08 163.877 4399.64 180.479C4397.69 196.592 4394.51 215.879 4390.12 238.34C4383.28 211.973 4376.69 190.732 4370.34 174.619C4364 158.018 4358.14 144.834 4352.77 135.068C4346.91 123.838 4341.05 115.293 4335.19 109.434C4328.84 105.039 4321.27 101.377 4312.48 98.4473C4304.67 96.0059 4294.66 94.0527 4282.45 92.5879C4270.74 91.123 4256.82 91.3672 4240.71 93.3203C4238.26 157.773 4236.56 210.02 4235.58 250.059C4234.6 290.098 4233.87 321.348 4233.38 343.809C4232.89 370.664 4232.65 389.951 4232.65 401.67C4233.14 418.271 4235.82 434.629 4240.71 450.742C4244.61 464.414 4250.96 478.574 4259.75 493.223C4268.54 507.871 4281.23 520.811 4297.83 532.041H4208.48C4200.18 532.041 4189.92 532.529 4177.72 533.506C4167.46 534.482 4154.28 535.459 4138.17 536.436C4122.54 537.412 4104.23 539.121 4083.24 541.562C4090.56 528.867 4096.42 517.393 4100.81 507.139C4105.21 496.885 4108.63 488.096 4111.07 480.771C4114 471.982 4116.19 464.17 4117.66 457.334C4118.15 447.568 4119.37 427.793 4121.32 398.008C4121.81 385.801 4122.3 370.664 4122.79 352.598C4123.76 334.531 4124.74 313.047 4125.72 288.145C4127.18 263.242 4128.4 234.678 4129.38 202.451C4130.84 169.736 4132.31 132.871 4133.77 91.8555C4124.98 89.4141 4116.68 89.6582 4108.87 92.5879C4101.06 95.0293 4094.22 98.2031 4088.36 102.109C4081.53 106.992 4074.93 112.852 4068.59 119.688C4062.24 127.988 4055.16 138.73 4047.35 151.914C4040.51 163.145 4032.7 178.037 4023.91 196.592C4015.12 214.658 4005.11 237.119 3993.88 263.975C3991.44 235.654 3989.73 212.461 3988.75 194.395C3987.78 175.84 3987.04 161.436 3986.56 151.182C3986.07 138.975 3985.82 129.941 3985.82 124.082C3985.82 118.711 3985.33 111.631 3984.36 102.842C3983.38 95.5176 3982.16 85.9961 3980.7 74.2773C3979.23 62.0703 3977.28 47.4219 3974.84 30.332Z" fill="black"/>
<path d="M1963.8 728C1962.13 728 1961.3 727.167 1961.3 725.5V597.2C1961.3 595.533 1962.13 594.7 1963.8 594.7H2032.3C2033.97 594.7 2034.8 595.533 2034.8 597.2V618.8C2034.8 620.467 2033.97 621.3 2032.3 621.3H1994.6V654.7H2027.3C2028.97 654.7 2029.8 655.533 2029.8 657.2V678.8C2029.8 680.467 2028.97 681.3 2027.3 681.3H1994.6V725.5C1994.6 727.167 1993.77 728 1992.1 728H1963.8ZM2052.55 728C2050.89 728 2050.05 727.167 2050.05 725.5V632.8C2050.05 631.933 2050.39 630.933 2051.05 629.8L2074.75 596.2C2075.49 595.2 2076.55 594.7 2077.95 594.7H2111.05C2112.52 594.7 2113.59 595.2 2114.25 596.2L2138.05 629.8C2138.72 630.733 2139.05 631.733 2139.05 632.8V725.5C2139.05 727.167 2138.22 728 2136.55 728H2108.25C2106.59 728 2105.75 727.167 2105.75 725.5V683H2083.45V725.5C2083.45 727.167 2082.62 728 2080.95 728H2052.55ZM2094.55 661.5C2100.69 661.5 2104.82 660.167 2106.95 657.5C2109.15 654.767 2110.25 649.6 2110.25 642C2110.25 634.4 2109.15 629.267 2106.95 626.6C2104.82 623.867 2100.69 622.5 2094.55 622.5C2088.49 622.5 2084.35 623.867 2082.15 626.6C2080.02 629.267 2078.95 634.4 2078.95 642C2078.95 649.6 2080.02 654.767 2082.15 657.5C2084.35 660.167 2088.49 661.5 2094.55 661.5ZM2161.97 728C2160.31 728 2159.47 727.167 2159.47 725.5V706.7C2159.47 705.833 2159.51 705.133 2159.57 704.6C2159.71 704.067 2160.11 703.633 2160.77 703.3L2186.97 691.3V673.5L2161.17 657.5C2160.04 656.833 2159.47 655.833 2159.47 654.5V617.8C2159.47 616.733 2159.54 615.967 2159.67 615.5C2159.81 614.967 2160.31 614.4 2161.17 613.8L2187.47 596C2188.14 595.6 2188.74 595.3 2189.27 595.1C2189.87 594.833 2190.61 594.7 2191.47 594.7H2218.47C2220.14 594.7 2220.97 595.533 2220.97 597.2V614.2C2220.97 615.667 2220.47 616.667 2219.47 617.2L2193.27 628V646.5L2219.47 661.5C2220.47 661.967 2220.97 663.033 2220.97 664.7V708.2C2220.97 708.733 2220.87 709.3 2220.67 709.9C2220.54 710.5 2220.21 710.933 2219.67 711.2L2188.27 726.8C2187.87 727 2187.37 727.267 2186.77 727.6C2186.24 727.867 2185.71 728 2185.17 728H2161.97ZM2264.46 728C2262.8 728 2261.96 727.167 2261.96 725.5V621.3H2244.46C2242.8 621.3 2241.96 620.467 2241.96 618.8V597.2C2241.96 595.533 2242.8 594.7 2244.46 594.7H2312.76C2314.43 594.7 2315.26 595.533 2315.26 597.2V618.8C2315.26 620.467 2314.43 621.3 2312.76 621.3H2295.26V725.5C2295.26 727.167 2294.43 728 2292.76 728H2264.46ZM2341.73 728C2340.06 728 2339.23 727.167 2339.23 725.5V597.2C2339.23 595.533 2340.06 594.7 2341.73 594.7H2410.23C2411.9 594.7 2412.73 595.533 2412.73 597.2V618.8C2412.73 620.467 2411.9 621.3 2410.23 621.3H2372.53V654.7H2405.23C2406.9 654.7 2407.73 655.533 2407.73 657.2V678.8C2407.73 680.467 2406.9 681.3 2405.23 681.3H2372.53V725.5C2372.53 727.167 2371.7 728 2370.03 728H2341.73ZM2454.38 728C2452.85 728 2451.52 727.433 2450.38 726.3L2430.38 706.3C2429.25 705.233 2428.68 703.9 2428.68 702.3V620.3C2428.68 618.767 2429.25 617.433 2430.38 616.3L2450.38 596.3C2451.52 595.233 2452.85 594.7 2454.38 594.7H2493.68C2495.28 594.7 2496.62 595.233 2497.68 596.3L2517.68 616.3C2518.82 617.433 2519.38 618.767 2519.38 620.3V702.3C2519.38 703.9 2518.82 705.233 2517.68 706.3L2497.68 726.3C2496.62 727.433 2495.28 728 2493.68 728H2454.38ZM2466.18 701.3H2481.88C2484.68 701.3 2486.08 699.433 2486.08 695.7V627C2486.08 623.2 2484.68 621.3 2481.88 621.3H2466.18C2463.45 621.3 2462.08 623.2 2462.08 627V695.7C2462.08 699.433 2463.45 701.3 2466.18 701.3ZM2569.03 728C2567.5 728 2566.17 727.433 2565.03 726.3L2545.03 706.3C2543.9 705.233 2543.33 703.9 2543.33 702.3V620.3C2543.33 618.767 2543.9 617.433 2545.03 616.3L2565.03 596.3C2566.17 595.233 2567.5 594.7 2569.03 594.7H2608.33C2609.93 594.7 2611.27 595.233 2612.33 596.3L2632.33 616.3C2633.47 617.433 2634.03 618.767 2634.03 620.3V702.3C2634.03 703.9 2633.47 705.233 2632.33 706.3L2612.33 726.3C2611.27 727.433 2609.93 728 2608.33 728H2569.03ZM2580.83 701.3H2596.53C2599.33 701.3 2600.73 699.433 2600.73 695.7V627C2600.73 623.2 2599.33 621.3 2596.53 621.3H2580.83C2578.1 621.3 2576.73 623.2 2576.73 627V695.7C2576.73 699.433 2578.1 701.3 2580.83 701.3ZM2659.78 728C2658.11 728 2657.28 727.167 2657.28 725.5V597.2C2657.28 595.533 2658.11 594.7 2659.78 594.7H2720.78C2722.38 594.7 2723.71 595.233 2724.78 596.3L2744.78 616.3C2745.91 617.433 2746.48 618.767 2746.48 620.3V702.3C2746.48 703.9 2745.91 705.233 2744.78 706.3L2724.78 726.3C2723.71 727.433 2722.38 728 2720.78 728H2659.78ZM2690.68 701.3H2708.98C2711.78 701.3 2713.18 699.433 2713.18 695.7V627C2713.18 623.2 2711.78 621.3 2708.98 621.3H2690.68V701.3Z" fill="black"/>
</g>
<rect x="4.5" y="0.5" width="5179" height="755" stroke="black"/>
</g>
<defs>
<filter id="filter0_d_3_8" x="0" y="0" width="5188" height="764" filterUnits="userSpaceOnUse" color-interpolation-filters="sRGB">
<feFlood flood-opacity="0" result="BackgroundImageFix"/>
<feColorMatrix in="SourceAlpha" type="matrix" values="0 0 0 0 0 0 0 0 0 0 0 0 0 0 0 0 0 0 127 0" result="hardAlpha"/>
<feOffset dy="4"/>
<feGaussianBlur stdDeviation="2"/>
<feComposite in2="hardAlpha" operator="out"/>
<feColorMatrix type="matrix" values="0 0 0 0 0 0 0 0 0 0 0 0 0 0 0 0 0 0 0.25 0"/>
<feBlend mode="normal" in2="BackgroundImageFix" result="effect1_dropShadow_3_8"/>
<feBlend mode="normal" in="SourceGraphic" in2="effect1_dropShadow_3_8" result="shape"/>
</filter>
<clipPath id="clip0_3_8">
<rect x="4" width="5180" height="756" fill="white"/>
</clipPath>
</defs>
</svg>
